<mxfile host="app.diagrams.net" agent="Mozilla/5.0 (Macintosh; Intel Mac OS X 10_15_7) AppleWebKit/605.1.15 (KHTML, like Gecko) Version/18.6 Safari/605.1.15" version="28.1.1">
  <diagram name="PÃ¡gina-1" id="1SGVTc56Pcw7ZlJBXdEu">
    <mxGraphModel dx="2775" dy="1402" grid="1" gridSize="10" guides="1" tooltips="1" connect="1" arrows="1" fold="1" page="1" pageScale="1" pageWidth="1600" pageHeight="2000" math="0" shadow="0">
      <root>
        <mxCell id="0" />
        <mxCell id="1" parent="0" />
        <mxCell id="okAwY-tgfTyeRXuGv9zp-173" value="AWS Cloud" style="points=[[0,0],[0.25,0],[0.5,0],[0.75,0],[1,0],[1,0.25],[1,0.5],[1,0.75],[1,1],[0.75,1],[0.5,1],[0.25,1],[0,1],[0,0.75],[0,0.5],[0,0.25]];outlineConnect=0;gradientColor=none;html=1;whiteSpace=wrap;fontSize=12;fontStyle=0;container=1;pointerEvents=0;collapsible=0;recursiveResize=0;shape=mxgraph.aws4.group;grIcon=mxgraph.aws4.group_aws_cloud_alt;strokeColor=#232F3E;fillColor=none;verticalAlign=top;align=left;spacingLeft=30;fontColor=#232F3E;dashed=0;" vertex="1" parent="1">
          <mxGeometry x="290" y="300" width="1070" height="1401" as="geometry" />
        </mxCell>
        <mxCell id="okAwY-tgfTyeRXuGv9zp-6" value="" style="sketch=0;points=[[0,0,0],[0.25,0,0],[0.5,0,0],[0.75,0,0],[1,0,0],[0,1,0],[0.25,1,0],[0.5,1,0],[0.75,1,0],[1,1,0],[0,0.25,0],[0,0.5,0],[0,0.75,0],[1,0.25,0],[1,0.5,0],[1,0.75,0]];outlineConnect=0;fontColor=#232F3E;fillColor=#DD344C;strokeColor=#ffffff;dashed=0;verticalLabelPosition=bottom;verticalAlign=top;align=center;html=1;fontSize=12;fontStyle=0;aspect=fixed;shape=mxgraph.aws4.resourceIcon;resIcon=mxgraph.aws4.waf;" vertex="1" parent="okAwY-tgfTyeRXuGv9zp-173">
          <mxGeometry x="520.5" y="132" width="39" height="39" as="geometry" />
        </mxCell>
        <mxCell id="okAwY-tgfTyeRXuGv9zp-80" value="" style="sketch=0;points=[[0,0,0],[0.25,0,0],[0.5,0,0],[0.75,0,0],[1,0,0],[0,1,0],[0.25,1,0],[0.5,1,0],[0.75,1,0],[1,1,0],[0,0.25,0],[0,0.5,0],[0,0.75,0],[1,0.25,0],[1,0.5,0],[1,0.75,0]];outlineConnect=0;fontColor=#232F3E;fillColor=#8C4FFF;strokeColor=#ffffff;dashed=0;verticalLabelPosition=bottom;verticalAlign=top;align=center;html=1;fontSize=12;fontStyle=0;aspect=fixed;shape=mxgraph.aws4.resourceIcon;resIcon=mxgraph.aws4.cloudfront;" vertex="1" parent="okAwY-tgfTyeRXuGv9zp-173">
          <mxGeometry x="520.5" y="11" width="40" height="40" as="geometry" />
        </mxCell>
        <mxCell id="okAwY-tgfTyeRXuGv9zp-81" value="" style="edgeStyle=orthogonalEdgeStyle;rounded=0;orthogonalLoop=1;jettySize=auto;html=1;" edge="1" parent="okAwY-tgfTyeRXuGv9zp-173" source="okAwY-tgfTyeRXuGv9zp-6" target="okAwY-tgfTyeRXuGv9zp-80">
          <mxGeometry relative="1" as="geometry" />
        </mxCell>
        <mxCell id="okAwY-tgfTyeRXuGv9zp-3" value="" style="edgeStyle=orthogonalEdgeStyle;rounded=0;orthogonalLoop=1;jettySize=auto;html=1;" edge="1" parent="1" source="okAwY-tgfTyeRXuGv9zp-1" target="okAwY-tgfTyeRXuGv9zp-2">
          <mxGeometry relative="1" as="geometry" />
        </mxCell>
        <mxCell id="okAwY-tgfTyeRXuGv9zp-5" value="bank.com.br" style="edgeLabel;html=1;align=center;verticalAlign=middle;resizable=0;points=[];" vertex="1" connectable="0" parent="okAwY-tgfTyeRXuGv9zp-3">
          <mxGeometry x="-0.0545" y="1" relative="1" as="geometry">
            <mxPoint as="offset" />
          </mxGeometry>
        </mxCell>
        <mxCell id="okAwY-tgfTyeRXuGv9zp-1" value="User" style="shape=umlActor;verticalLabelPosition=bottom;verticalAlign=top;html=1;outlineConnect=0;" vertex="1" parent="1">
          <mxGeometry x="170" y="431" width="20" height="40" as="geometry" />
        </mxCell>
        <mxCell id="okAwY-tgfTyeRXuGv9zp-7" value="" style="edgeStyle=orthogonalEdgeStyle;rounded=0;orthogonalLoop=1;jettySize=auto;html=1;" edge="1" parent="1" source="okAwY-tgfTyeRXuGv9zp-2" target="okAwY-tgfTyeRXuGv9zp-6">
          <mxGeometry relative="1" as="geometry" />
        </mxCell>
        <mxCell id="okAwY-tgfTyeRXuGv9zp-2" value="" style="sketch=0;points=[[0,0,0],[0.25,0,0],[0.5,0,0],[0.75,0,0],[1,0,0],[0,1,0],[0.25,1,0],[0.5,1,0],[0.75,1,0],[1,1,0],[0,0.25,0],[0,0.5,0],[0,0.75,0],[1,0.25,0],[1,0.5,0],[1,0.75,0]];outlineConnect=0;fontColor=#232F3E;fillColor=#8C4FFF;strokeColor=#ffffff;dashed=0;verticalLabelPosition=bottom;verticalAlign=top;align=center;html=1;fontSize=12;fontStyle=0;aspect=fixed;shape=mxgraph.aws4.resourceIcon;resIcon=mxgraph.aws4.route_53;" vertex="1" parent="1">
          <mxGeometry x="570" y="431" width="40" height="40" as="geometry" />
        </mxCell>
        <mxCell id="okAwY-tgfTyeRXuGv9zp-21" style="edgeStyle=orthogonalEdgeStyle;rounded=0;orthogonalLoop=1;jettySize=auto;html=1;exitX=0.5;exitY=1;exitDx=0;exitDy=0;exitPerimeter=0;" edge="1" parent="1" source="okAwY-tgfTyeRXuGv9zp-6" target="okAwY-tgfTyeRXuGv9zp-20">
          <mxGeometry relative="1" as="geometry" />
        </mxCell>
        <mxCell id="okAwY-tgfTyeRXuGv9zp-10" value="us-east" style="points=[[0,0],[0.25,0],[0.5,0],[0.75,0],[1,0],[1,0.25],[1,0.5],[1,0.75],[1,1],[0.75,1],[0.5,1],[0.25,1],[0,1],[0,0.75],[0,0.5],[0,0.25]];outlineConnect=0;gradientColor=none;html=1;whiteSpace=wrap;fontSize=12;fontStyle=0;container=1;pointerEvents=0;collapsible=0;recursiveResize=0;shape=mxgraph.aws4.group;grIcon=mxgraph.aws4.group_region;strokeColor=#00A4A6;fillColor=none;verticalAlign=top;align=left;spacingLeft=30;fontColor=#147EBA;dashed=1;" vertex="1" parent="1">
          <mxGeometry x="340" y="551" width="960" height="1130" as="geometry" />
        </mxCell>
        <mxCell id="okAwY-tgfTyeRXuGv9zp-11" value="VPC" style="points=[[0,0],[0.25,0],[0.5,0],[0.75,0],[1,0],[1,0.25],[1,0.5],[1,0.75],[1,1],[0.75,1],[0.5,1],[0.25,1],[0,1],[0,0.75],[0,0.5],[0,0.25]];outlineConnect=0;gradientColor=none;html=1;whiteSpace=wrap;fontSize=12;fontStyle=0;container=1;pointerEvents=0;collapsible=0;recursiveResize=0;shape=mxgraph.aws4.group;grIcon=mxgraph.aws4.group_vpc2;strokeColor=#8C4FFF;fillColor=none;verticalAlign=top;align=left;spacingLeft=30;fontColor=#AAB7B8;dashed=0;" vertex="1" parent="okAwY-tgfTyeRXuGv9zp-10">
          <mxGeometry x="10" y="30" width="940" height="1090" as="geometry" />
        </mxCell>
        <mxCell id="okAwY-tgfTyeRXuGv9zp-12" value="us-east-1a" style="fillColor=none;strokeColor=#147EBA;dashed=1;verticalAlign=top;fontStyle=0;fontColor=#147EBA;whiteSpace=wrap;html=1;" vertex="1" parent="okAwY-tgfTyeRXuGv9zp-11">
          <mxGeometry x="30" y="30" width="440" height="1050" as="geometry" />
        </mxCell>
        <mxCell id="okAwY-tgfTyeRXuGv9zp-14" value="us-east-1b" style="fillColor=none;strokeColor=#147EBA;dashed=1;verticalAlign=top;fontStyle=0;fontColor=#147EBA;whiteSpace=wrap;html=1;" vertex="1" parent="okAwY-tgfTyeRXuGv9zp-11">
          <mxGeometry x="490" y="30" width="440" height="1050" as="geometry" />
        </mxCell>
        <mxCell id="okAwY-tgfTyeRXuGv9zp-15" value="Subnet Front" style="points=[[0,0],[0.25,0],[0.5,0],[0.75,0],[1,0],[1,0.25],[1,0.5],[1,0.75],[1,1],[0.75,1],[0.5,1],[0.25,1],[0,1],[0,0.75],[0,0.5],[0,0.25]];outlineConnect=0;gradientColor=none;html=1;whiteSpace=wrap;fontSize=12;fontStyle=0;container=1;pointerEvents=0;collapsible=0;recursiveResize=0;shape=mxgraph.aws4.group;grIcon=mxgraph.aws4.group_security_group;grStroke=0;strokeColor=#7AA116;fillColor=#F2F6E8;verticalAlign=top;align=left;spacingLeft=30;fontColor=#248814;dashed=0;" vertex="1" parent="okAwY-tgfTyeRXuGv9zp-11">
          <mxGeometry x="310" y="60" width="120" height="80" as="geometry" />
        </mxCell>
        <mxCell id="okAwY-tgfTyeRXuGv9zp-27" value="" style="sketch=0;points=[[0,0,0],[0.25,0,0],[0.5,0,0],[0.75,0,0],[1,0,0],[0,1,0],[0.25,1,0],[0.5,1,0],[0.75,1,0],[1,1,0],[0,0.25,0],[0,0.5,0],[0,0.75,0],[1,0.25,0],[1,0.5,0],[1,0.75,0]];outlineConnect=0;fontColor=#232F3E;fillColor=#ED7100;strokeColor=#ffffff;dashed=0;verticalLabelPosition=bottom;verticalAlign=top;align=center;html=1;fontSize=12;fontStyle=0;aspect=fixed;shape=mxgraph.aws4.resourceIcon;resIcon=mxgraph.aws4.ecs;" vertex="1" parent="okAwY-tgfTyeRXuGv9zp-15">
          <mxGeometry x="40" y="30" width="40" height="40" as="geometry" />
        </mxCell>
        <mxCell id="okAwY-tgfTyeRXuGv9zp-19" value="Subnet Front" style="points=[[0,0],[0.25,0],[0.5,0],[0.75,0],[1,0],[1,0.25],[1,0.5],[1,0.75],[1,1],[0.75,1],[0.5,1],[0.25,1],[0,1],[0,0.75],[0,0.5],[0,0.25]];outlineConnect=0;gradientColor=none;html=1;whiteSpace=wrap;fontSize=12;fontStyle=0;container=1;pointerEvents=0;collapsible=0;recursiveResize=0;shape=mxgraph.aws4.group;grIcon=mxgraph.aws4.group_security_group;grStroke=0;strokeColor=#7AA116;fillColor=#F2F6E8;verticalAlign=top;align=left;spacingLeft=30;fontColor=#248814;dashed=0;" vertex="1" parent="okAwY-tgfTyeRXuGv9zp-11">
          <mxGeometry x="540" y="60" width="120" height="80" as="geometry" />
        </mxCell>
        <mxCell id="okAwY-tgfTyeRXuGv9zp-28" value="" style="sketch=0;points=[[0,0,0],[0.25,0,0],[0.5,0,0],[0.75,0,0],[1,0,0],[0,1,0],[0.25,1,0],[0.5,1,0],[0.75,1,0],[1,1,0],[0,0.25,0],[0,0.5,0],[0,0.75,0],[1,0.25,0],[1,0.5,0],[1,0.75,0]];outlineConnect=0;fontColor=#232F3E;fillColor=#ED7100;strokeColor=#ffffff;dashed=0;verticalLabelPosition=bottom;verticalAlign=top;align=center;html=1;fontSize=12;fontStyle=0;aspect=fixed;shape=mxgraph.aws4.resourceIcon;resIcon=mxgraph.aws4.ecs;" vertex="1" parent="okAwY-tgfTyeRXuGv9zp-19">
          <mxGeometry x="40" y="30" width="40" height="40" as="geometry" />
        </mxCell>
        <mxCell id="okAwY-tgfTyeRXuGv9zp-29" value="" style="edgeStyle=orthogonalEdgeStyle;rounded=0;orthogonalLoop=1;jettySize=auto;html=1;" edge="1" parent="okAwY-tgfTyeRXuGv9zp-11" source="okAwY-tgfTyeRXuGv9zp-22" target="okAwY-tgfTyeRXuGv9zp-27">
          <mxGeometry relative="1" as="geometry" />
        </mxCell>
        <mxCell id="okAwY-tgfTyeRXuGv9zp-30" value="" style="edgeStyle=orthogonalEdgeStyle;rounded=0;orthogonalLoop=1;jettySize=auto;html=1;" edge="1" parent="okAwY-tgfTyeRXuGv9zp-11" source="okAwY-tgfTyeRXuGv9zp-22" target="okAwY-tgfTyeRXuGv9zp-28">
          <mxGeometry relative="1" as="geometry" />
        </mxCell>
        <mxCell id="okAwY-tgfTyeRXuGv9zp-22" value="" style="sketch=0;outlineConnect=0;fontColor=#232F3E;gradientColor=none;fillColor=#8C4FFF;strokeColor=none;dashed=0;verticalLabelPosition=bottom;verticalAlign=top;align=center;html=1;fontSize=12;fontStyle=0;aspect=fixed;pointerEvents=1;shape=mxgraph.aws4.application_load_balancer;" vertex="1" parent="okAwY-tgfTyeRXuGv9zp-11">
          <mxGeometry x="460" y="90" width="40" height="40" as="geometry" />
        </mxCell>
        <mxCell id="okAwY-tgfTyeRXuGv9zp-31" value="Subnet BFF" style="points=[[0,0],[0.25,0],[0.5,0],[0.75,0],[1,0],[1,0.25],[1,0.5],[1,0.75],[1,1],[0.75,1],[0.5,1],[0.25,1],[0,1],[0,0.75],[0,0.5],[0,0.25]];outlineConnect=0;gradientColor=none;html=1;whiteSpace=wrap;fontSize=12;fontStyle=0;container=1;pointerEvents=0;collapsible=0;recursiveResize=0;shape=mxgraph.aws4.group;grIcon=mxgraph.aws4.group_security_group;grStroke=0;strokeColor=#00A4A6;fillColor=#E6F6F7;verticalAlign=top;align=left;spacingLeft=30;fontColor=#147EBA;dashed=0;" vertex="1" parent="okAwY-tgfTyeRXuGv9zp-11">
          <mxGeometry x="310" y="170" width="120" height="90" as="geometry" />
        </mxCell>
        <mxCell id="okAwY-tgfTyeRXuGv9zp-32" value="" style="sketch=0;points=[[0,0,0],[0.25,0,0],[0.5,0,0],[0.75,0,0],[1,0,0],[0,1,0],[0.25,1,0],[0.5,1,0],[0.75,1,0],[1,1,0],[0,0.25,0],[0,0.5,0],[0,0.75,0],[1,0.25,0],[1,0.5,0],[1,0.75,0]];outlineConnect=0;fontColor=#232F3E;fillColor=#ED7100;strokeColor=#ffffff;dashed=0;verticalLabelPosition=bottom;verticalAlign=top;align=center;html=1;fontSize=12;fontStyle=0;aspect=fixed;shape=mxgraph.aws4.resourceIcon;resIcon=mxgraph.aws4.ecs;" vertex="1" parent="okAwY-tgfTyeRXuGv9zp-31">
          <mxGeometry x="40" y="30" width="40" height="40" as="geometry" />
        </mxCell>
        <mxCell id="okAwY-tgfTyeRXuGv9zp-33" value="Subnet BFF" style="points=[[0,0],[0.25,0],[0.5,0],[0.75,0],[1,0],[1,0.25],[1,0.5],[1,0.75],[1,1],[0.75,1],[0.5,1],[0.25,1],[0,1],[0,0.75],[0,0.5],[0,0.25]];outlineConnect=0;gradientColor=none;html=1;whiteSpace=wrap;fontSize=12;fontStyle=0;container=1;pointerEvents=0;collapsible=0;recursiveResize=0;shape=mxgraph.aws4.group;grIcon=mxgraph.aws4.group_security_group;grStroke=0;strokeColor=#00A4A6;fillColor=#E6F6F7;verticalAlign=top;align=left;spacingLeft=30;fontColor=#147EBA;dashed=0;" vertex="1" parent="okAwY-tgfTyeRXuGv9zp-11">
          <mxGeometry x="540" y="170" width="120" height="90" as="geometry" />
        </mxCell>
        <mxCell id="okAwY-tgfTyeRXuGv9zp-34" value="" style="sketch=0;points=[[0,0,0],[0.25,0,0],[0.5,0,0],[0.75,0,0],[1,0,0],[0,1,0],[0.25,1,0],[0.5,1,0],[0.75,1,0],[1,1,0],[0,0.25,0],[0,0.5,0],[0,0.75,0],[1,0.25,0],[1,0.5,0],[1,0.75,0]];outlineConnect=0;fontColor=#232F3E;fillColor=#ED7100;strokeColor=#ffffff;dashed=0;verticalLabelPosition=bottom;verticalAlign=top;align=center;html=1;fontSize=12;fontStyle=0;aspect=fixed;shape=mxgraph.aws4.resourceIcon;resIcon=mxgraph.aws4.ecs;" vertex="1" parent="okAwY-tgfTyeRXuGv9zp-33">
          <mxGeometry x="40" y="30" width="40" height="40" as="geometry" />
        </mxCell>
        <mxCell id="okAwY-tgfTyeRXuGv9zp-38" value="" style="edgeStyle=orthogonalEdgeStyle;rounded=0;orthogonalLoop=1;jettySize=auto;html=1;" edge="1" parent="okAwY-tgfTyeRXuGv9zp-11" source="okAwY-tgfTyeRXuGv9zp-35" target="okAwY-tgfTyeRXuGv9zp-32">
          <mxGeometry relative="1" as="geometry">
            <Array as="points">
              <mxPoint x="430" y="220" />
              <mxPoint x="430" y="220" />
            </Array>
          </mxGeometry>
        </mxCell>
        <mxCell id="okAwY-tgfTyeRXuGv9zp-39" value="" style="edgeStyle=orthogonalEdgeStyle;rounded=0;orthogonalLoop=1;jettySize=auto;html=1;" edge="1" parent="okAwY-tgfTyeRXuGv9zp-11" source="okAwY-tgfTyeRXuGv9zp-35" target="okAwY-tgfTyeRXuGv9zp-34">
          <mxGeometry relative="1" as="geometry" />
        </mxCell>
        <mxCell id="okAwY-tgfTyeRXuGv9zp-35" value="" style="sketch=0;outlineConnect=0;fontColor=#232F3E;gradientColor=none;fillColor=#8C4FFF;strokeColor=none;dashed=0;verticalLabelPosition=bottom;verticalAlign=top;align=center;html=1;fontSize=12;fontStyle=0;aspect=fixed;pointerEvents=1;shape=mxgraph.aws4.application_load_balancer;" vertex="1" parent="okAwY-tgfTyeRXuGv9zp-11">
          <mxGeometry x="460" y="200" width="40" height="40" as="geometry" />
        </mxCell>
        <mxCell id="okAwY-tgfTyeRXuGv9zp-41" style="edgeStyle=orthogonalEdgeStyle;rounded=0;orthogonalLoop=1;jettySize=auto;html=1;exitX=1;exitY=0.5;exitDx=0;exitDy=0;exitPerimeter=0;" edge="1" parent="okAwY-tgfTyeRXuGv9zp-11" source="okAwY-tgfTyeRXuGv9zp-32" target="okAwY-tgfTyeRXuGv9zp-35">
          <mxGeometry relative="1" as="geometry" />
        </mxCell>
        <mxCell id="okAwY-tgfTyeRXuGv9zp-42" style="edgeStyle=orthogonalEdgeStyle;rounded=0;orthogonalLoop=1;jettySize=auto;html=1;exitX=0;exitY=0.5;exitDx=0;exitDy=0;exitPerimeter=0;" edge="1" parent="okAwY-tgfTyeRXuGv9zp-11" source="okAwY-tgfTyeRXuGv9zp-34" target="okAwY-tgfTyeRXuGv9zp-35">
          <mxGeometry relative="1" as="geometry" />
        </mxCell>
        <mxCell id="okAwY-tgfTyeRXuGv9zp-44" style="edgeStyle=orthogonalEdgeStyle;rounded=0;orthogonalLoop=1;jettySize=auto;html=1;exitX=0.5;exitY=1;exitDx=0;exitDy=0;exitPerimeter=0;entryX=0.25;entryY=0.05;entryDx=0;entryDy=0;entryPerimeter=0;" edge="1" parent="okAwY-tgfTyeRXuGv9zp-11" source="okAwY-tgfTyeRXuGv9zp-27" target="okAwY-tgfTyeRXuGv9zp-35">
          <mxGeometry relative="1" as="geometry">
            <Array as="points">
              <mxPoint x="370" y="150" />
              <mxPoint x="470" y="150" />
            </Array>
          </mxGeometry>
        </mxCell>
        <mxCell id="okAwY-tgfTyeRXuGv9zp-45" style="edgeStyle=orthogonalEdgeStyle;rounded=0;orthogonalLoop=1;jettySize=auto;html=1;exitX=0.5;exitY=1;exitDx=0;exitDy=0;exitPerimeter=0;" edge="1" parent="okAwY-tgfTyeRXuGv9zp-11" source="okAwY-tgfTyeRXuGv9zp-28">
          <mxGeometry relative="1" as="geometry">
            <mxPoint x="490" y="203" as="targetPoint" />
            <Array as="points">
              <mxPoint x="600" y="150" />
              <mxPoint x="490" y="150" />
            </Array>
          </mxGeometry>
        </mxCell>
        <mxCell id="okAwY-tgfTyeRXuGv9zp-46" value="Subnet Auth" style="points=[[0,0],[0.25,0],[0.5,0],[0.75,0],[1,0],[1,0.25],[1,0.5],[1,0.75],[1,1],[0.75,1],[0.5,1],[0.25,1],[0,1],[0,0.75],[0,0.5],[0,0.25]];outlineConnect=0;gradientColor=none;html=1;whiteSpace=wrap;fontSize=12;fontStyle=0;container=1;pointerEvents=0;collapsible=0;recursiveResize=0;shape=mxgraph.aws4.group;grIcon=mxgraph.aws4.group_security_group;grStroke=0;strokeColor=#00A4A6;fillColor=#E6F6F7;verticalAlign=top;align=left;spacingLeft=30;fontColor=#147EBA;dashed=0;" vertex="1" parent="okAwY-tgfTyeRXuGv9zp-11">
          <mxGeometry x="310" y="295" width="120" height="90" as="geometry" />
        </mxCell>
        <mxCell id="okAwY-tgfTyeRXuGv9zp-47" value="" style="sketch=0;points=[[0,0,0],[0.25,0,0],[0.5,0,0],[0.75,0,0],[1,0,0],[0,1,0],[0.25,1,0],[0.5,1,0],[0.75,1,0],[1,1,0],[0,0.25,0],[0,0.5,0],[0,0.75,0],[1,0.25,0],[1,0.5,0],[1,0.75,0]];outlineConnect=0;fontColor=#232F3E;fillColor=#ED7100;strokeColor=#ffffff;dashed=0;verticalLabelPosition=bottom;verticalAlign=top;align=center;html=1;fontSize=12;fontStyle=0;aspect=fixed;shape=mxgraph.aws4.resourceIcon;resIcon=mxgraph.aws4.ecs;" vertex="1" parent="okAwY-tgfTyeRXuGv9zp-46">
          <mxGeometry x="40" y="30" width="40" height="40" as="geometry" />
        </mxCell>
        <mxCell id="okAwY-tgfTyeRXuGv9zp-51" value="" style="edgeStyle=orthogonalEdgeStyle;rounded=0;orthogonalLoop=1;jettySize=auto;html=1;entryX=1;entryY=0.5;entryDx=0;entryDy=0;entryPerimeter=0;" edge="1" parent="okAwY-tgfTyeRXuGv9zp-11" source="okAwY-tgfTyeRXuGv9zp-35" target="okAwY-tgfTyeRXuGv9zp-47">
          <mxGeometry relative="1" as="geometry">
            <mxPoint x="480" y="310" as="targetPoint" />
            <Array as="points">
              <mxPoint x="470" y="345" />
            </Array>
          </mxGeometry>
        </mxCell>
        <mxCell id="okAwY-tgfTyeRXuGv9zp-53" value="Subnet Cache" style="points=[[0,0],[0.25,0],[0.5,0],[0.75,0],[1,0],[1,0.25],[1,0.5],[1,0.75],[1,1],[0.75,1],[0.5,1],[0.25,1],[0,1],[0,0.75],[0,0.5],[0,0.25]];outlineConnect=0;gradientColor=none;html=1;whiteSpace=wrap;fontSize=12;fontStyle=0;container=1;pointerEvents=0;collapsible=0;recursiveResize=0;shape=mxgraph.aws4.group;grIcon=mxgraph.aws4.group_security_group;grStroke=0;strokeColor=#00A4A6;fillColor=#E6F6F7;verticalAlign=top;align=left;spacingLeft=30;fontColor=#147EBA;dashed=0;" vertex="1" parent="okAwY-tgfTyeRXuGv9zp-11">
          <mxGeometry x="120" y="220" width="120" height="90" as="geometry" />
        </mxCell>
        <mxCell id="okAwY-tgfTyeRXuGv9zp-55" value="" style="outlineConnect=0;dashed=0;verticalLabelPosition=bottom;verticalAlign=top;align=center;html=1;shape=mxgraph.aws3.elasticache;fillColor=#2E73B8;gradientColor=none;" vertex="1" parent="okAwY-tgfTyeRXuGv9zp-53">
          <mxGeometry x="33.129999999999995" y="30" width="53.75" height="50" as="geometry" />
        </mxCell>
        <mxCell id="okAwY-tgfTyeRXuGv9zp-56" value="Subnet DB" style="points=[[0,0],[0.25,0],[0.5,0],[0.75,0],[1,0],[1,0.25],[1,0.5],[1,0.75],[1,1],[0.75,1],[0.5,1],[0.25,1],[0,1],[0,0.75],[0,0.5],[0,0.25]];outlineConnect=0;gradientColor=none;html=1;whiteSpace=wrap;fontSize=12;fontStyle=0;container=1;pointerEvents=0;collapsible=0;recursiveResize=0;shape=mxgraph.aws4.group;grIcon=mxgraph.aws4.group_security_group;grStroke=0;strokeColor=#00A4A6;fillColor=#E6F6F7;verticalAlign=top;align=left;spacingLeft=30;fontColor=#147EBA;dashed=0;" vertex="1" parent="okAwY-tgfTyeRXuGv9zp-11">
          <mxGeometry x="120" y="370" width="120" height="90" as="geometry" />
        </mxCell>
        <mxCell id="okAwY-tgfTyeRXuGv9zp-58" style="edgeStyle=orthogonalEdgeStyle;rounded=0;orthogonalLoop=1;jettySize=auto;html=1;exitX=0;exitY=0.5;exitDx=0;exitDy=0;exitPerimeter=0;entryX=0.71;entryY=0.5;entryDx=0;entryDy=0;entryPerimeter=0;" edge="1" parent="okAwY-tgfTyeRXuGv9zp-11" source="okAwY-tgfTyeRXuGv9zp-47" target="okAwY-tgfTyeRXuGv9zp-55">
          <mxGeometry relative="1" as="geometry">
            <Array as="points">
              <mxPoint x="260" y="345" />
              <mxPoint x="260" y="275" />
            </Array>
          </mxGeometry>
        </mxCell>
        <mxCell id="okAwY-tgfTyeRXuGv9zp-59" style="edgeStyle=orthogonalEdgeStyle;rounded=0;orthogonalLoop=1;jettySize=auto;html=1;exitX=0;exitY=0.5;exitDx=0;exitDy=0;exitPerimeter=0;entryX=1;entryY=0.5;entryDx=0;entryDy=0;entryPerimeter=0;" edge="1" parent="okAwY-tgfTyeRXuGv9zp-11" source="okAwY-tgfTyeRXuGv9zp-47" target="okAwY-tgfTyeRXuGv9zp-67">
          <mxGeometry relative="1" as="geometry">
            <mxPoint x="191.2924999999998" y="425" as="targetPoint" />
            <Array as="points">
              <mxPoint x="260" y="345" />
              <mxPoint x="260" y="430" />
            </Array>
          </mxGeometry>
        </mxCell>
        <mxCell id="okAwY-tgfTyeRXuGv9zp-60" value="" style="sketch=0;points=[[0,0,0],[0.25,0,0],[0.5,0,0],[0.75,0,0],[1,0,0],[0,1,0],[0.25,1,0],[0.5,1,0],[0.75,1,0],[1,1,0],[0,0.25,0],[0,0.5,0],[0,0.75,0],[1,0.25,0],[1,0.5,0],[1,0.75,0]];outlineConnect=0;fontColor=#232F3E;fillColor=#E7157B;strokeColor=#ffffff;dashed=0;verticalLabelPosition=bottom;verticalAlign=top;align=center;html=1;fontSize=12;fontStyle=0;aspect=fixed;shape=mxgraph.aws4.resourceIcon;resIcon=mxgraph.aws4.sns;" vertex="1" parent="okAwY-tgfTyeRXuGv9zp-11">
          <mxGeometry x="345" y="430" width="50" height="50" as="geometry" />
        </mxCell>
        <mxCell id="okAwY-tgfTyeRXuGv9zp-61" value="" style="edgeStyle=orthogonalEdgeStyle;rounded=0;orthogonalLoop=1;jettySize=auto;html=1;" edge="1" parent="okAwY-tgfTyeRXuGv9zp-11" source="okAwY-tgfTyeRXuGv9zp-47" target="okAwY-tgfTyeRXuGv9zp-60">
          <mxGeometry relative="1" as="geometry" />
        </mxCell>
        <mxCell id="okAwY-tgfTyeRXuGv9zp-62" value="Subnet Batch" style="points=[[0,0],[0.25,0],[0.5,0],[0.75,0],[1,0],[1,0.25],[1,0.5],[1,0.75],[1,1],[0.75,1],[0.5,1],[0.25,1],[0,1],[0,0.75],[0,0.5],[0,0.25]];outlineConnect=0;gradientColor=none;html=1;whiteSpace=wrap;fontSize=12;fontStyle=0;container=1;pointerEvents=0;collapsible=0;recursiveResize=0;shape=mxgraph.aws4.group;grIcon=mxgraph.aws4.group_security_group;grStroke=0;strokeColor=#00A4A6;fillColor=#E6F6F7;verticalAlign=top;align=left;spacingLeft=30;fontColor=#147EBA;dashed=0;" vertex="1" parent="okAwY-tgfTyeRXuGv9zp-11">
          <mxGeometry x="310" y="540" width="120" height="90" as="geometry" />
        </mxCell>
        <mxCell id="okAwY-tgfTyeRXuGv9zp-63" value="" style="sketch=0;points=[[0,0,0],[0.25,0,0],[0.5,0,0],[0.75,0,0],[1,0,0],[0,1,0],[0.25,1,0],[0.5,1,0],[0.75,1,0],[1,1,0],[0,0.25,0],[0,0.5,0],[0,0.75,0],[1,0.25,0],[1,0.5,0],[1,0.75,0]];outlineConnect=0;fontColor=#232F3E;fillColor=#ED7100;strokeColor=#ffffff;dashed=0;verticalLabelPosition=bottom;verticalAlign=top;align=center;html=1;fontSize=12;fontStyle=0;aspect=fixed;shape=mxgraph.aws4.resourceIcon;resIcon=mxgraph.aws4.ecs;" vertex="1" parent="okAwY-tgfTyeRXuGv9zp-62">
          <mxGeometry x="40" y="30" width="40" height="40" as="geometry" />
        </mxCell>
        <mxCell id="okAwY-tgfTyeRXuGv9zp-64" value="" style="edgeStyle=orthogonalEdgeStyle;rounded=0;orthogonalLoop=1;jettySize=auto;html=1;" edge="1" parent="okAwY-tgfTyeRXuGv9zp-11" source="okAwY-tgfTyeRXuGv9zp-63" target="okAwY-tgfTyeRXuGv9zp-60">
          <mxGeometry relative="1" as="geometry" />
        </mxCell>
        <mxCell id="okAwY-tgfTyeRXuGv9zp-65" value="Subnet TRS" style="points=[[0,0],[0.25,0],[0.5,0],[0.75,0],[1,0],[1,0.25],[1,0.5],[1,0.75],[1,1],[0.75,1],[0.5,1],[0.25,1],[0,1],[0,0.75],[0,0.5],[0,0.25]];outlineConnect=0;gradientColor=none;html=1;whiteSpace=wrap;fontSize=12;fontStyle=0;container=1;pointerEvents=0;collapsible=0;recursiveResize=0;shape=mxgraph.aws4.group;grIcon=mxgraph.aws4.group_security_group;grStroke=0;strokeColor=#00A4A6;fillColor=#E6F6F7;verticalAlign=top;align=left;spacingLeft=30;fontColor=#147EBA;dashed=0;" vertex="1" parent="okAwY-tgfTyeRXuGv9zp-11">
          <mxGeometry x="310" y="830" width="120" height="90" as="geometry" />
        </mxCell>
        <mxCell id="okAwY-tgfTyeRXuGv9zp-66" value="" style="sketch=0;points=[[0,0,0],[0.25,0,0],[0.5,0,0],[0.75,0,0],[1,0,0],[0,1,0],[0.25,1,0],[0.5,1,0],[0.75,1,0],[1,1,0],[0,0.25,0],[0,0.5,0],[0,0.75,0],[1,0.25,0],[1,0.5,0],[1,0.75,0]];outlineConnect=0;fontColor=#232F3E;fillColor=#ED7100;strokeColor=#ffffff;dashed=0;verticalLabelPosition=bottom;verticalAlign=top;align=center;html=1;fontSize=12;fontStyle=0;aspect=fixed;shape=mxgraph.aws4.resourceIcon;resIcon=mxgraph.aws4.ecs;" vertex="1" parent="okAwY-tgfTyeRXuGv9zp-65">
          <mxGeometry x="40" y="30" width="40" height="40" as="geometry" />
        </mxCell>
        <mxCell id="okAwY-tgfTyeRXuGv9zp-67" value="" style="sketch=0;points=[[0,0,0],[0.25,0,0],[0.5,0,0],[0.75,0,0],[1,0,0],[0,1,0],[0.25,1,0],[0.5,1,0],[0.75,1,0],[1,1,0],[0,0.25,0],[0,0.5,0],[0,0.75,0],[1,0.25,0],[1,0.5,0],[1,0.75,0]];outlineConnect=0;fontColor=#232F3E;fillColor=#C925D1;strokeColor=#ffffff;dashed=0;verticalLabelPosition=bottom;verticalAlign=top;align=center;html=1;fontSize=12;fontStyle=0;aspect=fixed;shape=mxgraph.aws4.resourceIcon;resIcon=mxgraph.aws4.rds;" vertex="1" parent="okAwY-tgfTyeRXuGv9zp-11">
          <mxGeometry x="160" y="410" width="40" height="40" as="geometry" />
        </mxCell>
        <mxCell id="okAwY-tgfTyeRXuGv9zp-68" value="Subnet Cache" style="points=[[0,0],[0.25,0],[0.5,0],[0.75,0],[1,0],[1,0.25],[1,0.5],[1,0.75],[1,1],[0.75,1],[0.5,1],[0.25,1],[0,1],[0,0.75],[0,0.5],[0,0.25]];outlineConnect=0;gradientColor=none;html=1;whiteSpace=wrap;fontSize=12;fontStyle=0;container=1;pointerEvents=0;collapsible=0;recursiveResize=0;shape=mxgraph.aws4.group;grIcon=mxgraph.aws4.group_security_group;grStroke=0;strokeColor=#00A4A6;fillColor=#E6F6F7;verticalAlign=top;align=left;spacingLeft=30;fontColor=#147EBA;dashed=0;" vertex="1" parent="okAwY-tgfTyeRXuGv9zp-11">
          <mxGeometry x="90" y="750" width="120" height="90" as="geometry" />
        </mxCell>
        <mxCell id="okAwY-tgfTyeRXuGv9zp-69" value="" style="outlineConnect=0;dashed=0;verticalLabelPosition=bottom;verticalAlign=top;align=center;html=1;shape=mxgraph.aws3.elasticache;fillColor=#2E73B8;gradientColor=none;" vertex="1" parent="okAwY-tgfTyeRXuGv9zp-68">
          <mxGeometry x="33.129999999999995" y="30" width="53.75" height="50" as="geometry" />
        </mxCell>
        <mxCell id="okAwY-tgfTyeRXuGv9zp-70" value="Subnet DB" style="points=[[0,0],[0.25,0],[0.5,0],[0.75,0],[1,0],[1,0.25],[1,0.5],[1,0.75],[1,1],[0.75,1],[0.5,1],[0.25,1],[0,1],[0,0.75],[0,0.5],[0,0.25]];outlineConnect=0;gradientColor=none;html=1;whiteSpace=wrap;fontSize=12;fontStyle=0;container=1;pointerEvents=0;collapsible=0;recursiveResize=0;shape=mxgraph.aws4.group;grIcon=mxgraph.aws4.group_security_group;grStroke=0;strokeColor=#00A4A6;fillColor=#E6F6F7;verticalAlign=top;align=left;spacingLeft=30;fontColor=#147EBA;dashed=0;" vertex="1" parent="okAwY-tgfTyeRXuGv9zp-11">
          <mxGeometry x="90" y="900" width="120" height="90" as="geometry" />
        </mxCell>
        <mxCell id="okAwY-tgfTyeRXuGv9zp-71" value="" style="sketch=0;points=[[0,0,0],[0.25,0,0],[0.5,0,0],[0.75,0,0],[1,0,0],[0,1,0],[0.25,1,0],[0.5,1,0],[0.75,1,0],[1,1,0],[0,0.25,0],[0,0.5,0],[0,0.75,0],[1,0.25,0],[1,0.5,0],[1,0.75,0]];outlineConnect=0;fontColor=#232F3E;fillColor=#C925D1;strokeColor=#ffffff;dashed=0;verticalLabelPosition=bottom;verticalAlign=top;align=center;html=1;fontSize=12;fontStyle=0;aspect=fixed;shape=mxgraph.aws4.resourceIcon;resIcon=mxgraph.aws4.rds;" vertex="1" parent="okAwY-tgfTyeRXuGv9zp-11">
          <mxGeometry x="130" y="940" width="40" height="40" as="geometry" />
        </mxCell>
        <mxCell id="okAwY-tgfTyeRXuGv9zp-74" value="" style="edgeStyle=orthogonalEdgeStyle;rounded=0;orthogonalLoop=1;jettySize=auto;html=1;" edge="1" parent="okAwY-tgfTyeRXuGv9zp-11" source="okAwY-tgfTyeRXuGv9zp-72" target="okAwY-tgfTyeRXuGv9zp-63">
          <mxGeometry relative="1" as="geometry" />
        </mxCell>
        <mxCell id="okAwY-tgfTyeRXuGv9zp-72" value="" style="sketch=0;points=[[0,0,0],[0.25,0,0],[0.5,0,0],[0.75,0,0],[1,0,0],[0,1,0],[0.25,1,0],[0.5,1,0],[0.75,1,0],[1,1,0],[0,0.25,0],[0,0.5,0],[0,0.75,0],[1,0.25,0],[1,0.5,0],[1,0.75,0]];outlineConnect=0;fontColor=#232F3E;fillColor=#E7157B;strokeColor=#ffffff;dashed=0;verticalLabelPosition=bottom;verticalAlign=top;align=center;html=1;fontSize=12;fontStyle=0;aspect=fixed;shape=mxgraph.aws4.resourceIcon;resIcon=mxgraph.aws4.sqs;" vertex="1" parent="okAwY-tgfTyeRXuGv9zp-11">
          <mxGeometry x="345" y="700" width="50" height="50" as="geometry" />
        </mxCell>
        <mxCell id="okAwY-tgfTyeRXuGv9zp-73" value="" style="edgeStyle=orthogonalEdgeStyle;rounded=0;orthogonalLoop=1;jettySize=auto;html=1;" edge="1" parent="okAwY-tgfTyeRXuGv9zp-11" source="okAwY-tgfTyeRXuGv9zp-66" target="okAwY-tgfTyeRXuGv9zp-72">
          <mxGeometry relative="1" as="geometry" />
        </mxCell>
        <mxCell id="okAwY-tgfTyeRXuGv9zp-75" style="edgeStyle=orthogonalEdgeStyle;rounded=0;orthogonalLoop=1;jettySize=auto;html=1;exitX=0;exitY=0.5;exitDx=0;exitDy=0;exitPerimeter=0;entryX=0.71;entryY=0.5;entryDx=0;entryDy=0;entryPerimeter=0;" edge="1" parent="okAwY-tgfTyeRXuGv9zp-11" source="okAwY-tgfTyeRXuGv9zp-66" target="okAwY-tgfTyeRXuGv9zp-69">
          <mxGeometry relative="1" as="geometry">
            <Array as="points">
              <mxPoint x="240" y="880" />
              <mxPoint x="240" y="805" />
            </Array>
          </mxGeometry>
        </mxCell>
        <mxCell id="okAwY-tgfTyeRXuGv9zp-76" style="edgeStyle=orthogonalEdgeStyle;rounded=0;orthogonalLoop=1;jettySize=auto;html=1;exitX=0;exitY=0.5;exitDx=0;exitDy=0;exitPerimeter=0;entryX=1;entryY=0.5;entryDx=0;entryDy=0;entryPerimeter=0;" edge="1" parent="okAwY-tgfTyeRXuGv9zp-11" source="okAwY-tgfTyeRXuGv9zp-66" target="okAwY-tgfTyeRXuGv9zp-71">
          <mxGeometry relative="1" as="geometry">
            <Array as="points">
              <mxPoint x="240" y="880" />
              <mxPoint x="240" y="960" />
            </Array>
          </mxGeometry>
        </mxCell>
        <mxCell id="okAwY-tgfTyeRXuGv9zp-77" value="" style="sketch=0;points=[[0,0,0],[0.25,0,0],[0.5,0,0],[0.75,0,0],[1,0,0],[0,1,0],[0.25,1,0],[0.5,1,0],[0.75,1,0],[1,1,0],[0,0.25,0],[0,0.5,0],[0,0.75,0],[1,0.25,0],[1,0.5,0],[1,0.75,0]];outlineConnect=0;fontColor=#232F3E;fillColor=#E7157B;strokeColor=#ffffff;dashed=0;verticalLabelPosition=bottom;verticalAlign=top;align=center;html=1;fontSize=12;fontStyle=0;aspect=fixed;shape=mxgraph.aws4.resourceIcon;resIcon=mxgraph.aws4.sqs;" vertex="1" parent="okAwY-tgfTyeRXuGv9zp-11">
          <mxGeometry x="345" y="990" width="50" height="50" as="geometry" />
        </mxCell>
        <mxCell id="okAwY-tgfTyeRXuGv9zp-78" value="" style="edgeStyle=orthogonalEdgeStyle;rounded=0;orthogonalLoop=1;jettySize=auto;html=1;" edge="1" parent="okAwY-tgfTyeRXuGv9zp-11" source="okAwY-tgfTyeRXuGv9zp-66" target="okAwY-tgfTyeRXuGv9zp-77">
          <mxGeometry relative="1" as="geometry" />
        </mxCell>
        <mxCell id="okAwY-tgfTyeRXuGv9zp-79" style="edgeStyle=orthogonalEdgeStyle;rounded=0;orthogonalLoop=1;jettySize=auto;html=1;exitX=0.5;exitY=0;exitDx=0;exitDy=0;exitPerimeter=0;entryX=0.5;entryY=1;entryDx=0;entryDy=0;entryPerimeter=0;" edge="1" parent="okAwY-tgfTyeRXuGv9zp-11" source="okAwY-tgfTyeRXuGv9zp-77" target="okAwY-tgfTyeRXuGv9zp-66">
          <mxGeometry relative="1" as="geometry" />
        </mxCell>
        <mxCell id="okAwY-tgfTyeRXuGv9zp-82" value="" style="edgeStyle=orthogonalEdgeStyle;rounded=0;orthogonalLoop=1;jettySize=auto;html=1;entryX=1;entryY=0.5;entryDx=0;entryDy=0;entryPerimeter=0;" edge="1" parent="okAwY-tgfTyeRXuGv9zp-11" target="okAwY-tgfTyeRXuGv9zp-66">
          <mxGeometry relative="1" as="geometry">
            <mxPoint x="470" y="240" as="sourcePoint" />
            <mxPoint x="400" y="355" as="targetPoint" />
            <Array as="points">
              <mxPoint x="470" y="880" />
            </Array>
          </mxGeometry>
        </mxCell>
        <mxCell id="okAwY-tgfTyeRXuGv9zp-141" value="Subnet Auth" style="points=[[0,0],[0.25,0],[0.5,0],[0.75,0],[1,0],[1,0.25],[1,0.5],[1,0.75],[1,1],[0.75,1],[0.5,1],[0.25,1],[0,1],[0,0.75],[0,0.5],[0,0.25]];outlineConnect=0;gradientColor=none;html=1;whiteSpace=wrap;fontSize=12;fontStyle=0;container=1;pointerEvents=0;collapsible=0;recursiveResize=0;shape=mxgraph.aws4.group;grIcon=mxgraph.aws4.group_security_group;grStroke=0;strokeColor=#00A4A6;fillColor=#E6F6F7;verticalAlign=top;align=left;spacingLeft=30;fontColor=#147EBA;dashed=0;" vertex="1" parent="okAwY-tgfTyeRXuGv9zp-11">
          <mxGeometry x="540" y="295" width="120" height="90" as="geometry" />
        </mxCell>
        <mxCell id="okAwY-tgfTyeRXuGv9zp-142" value="" style="sketch=0;points=[[0,0,0],[0.25,0,0],[0.5,0,0],[0.75,0,0],[1,0,0],[0,1,0],[0.25,1,0],[0.5,1,0],[0.75,1,0],[1,1,0],[0,0.25,0],[0,0.5,0],[0,0.75,0],[1,0.25,0],[1,0.5,0],[1,0.75,0]];outlineConnect=0;fontColor=#232F3E;fillColor=#ED7100;strokeColor=#ffffff;dashed=0;verticalLabelPosition=bottom;verticalAlign=top;align=center;html=1;fontSize=12;fontStyle=0;aspect=fixed;shape=mxgraph.aws4.resourceIcon;resIcon=mxgraph.aws4.ecs;" vertex="1" parent="okAwY-tgfTyeRXuGv9zp-141">
          <mxGeometry x="40" y="30" width="40" height="40" as="geometry" />
        </mxCell>
        <mxCell id="okAwY-tgfTyeRXuGv9zp-52" value="" style="edgeStyle=orthogonalEdgeStyle;rounded=0;orthogonalLoop=1;jettySize=auto;html=1;entryX=0;entryY=0.5;entryDx=0;entryDy=0;entryPerimeter=0;" edge="1" parent="okAwY-tgfTyeRXuGv9zp-11" source="okAwY-tgfTyeRXuGv9zp-35">
          <mxGeometry relative="1" as="geometry">
            <mxPoint x="480" y="250" as="sourcePoint" />
            <mxPoint x="580" y="345" as="targetPoint" />
            <Array as="points">
              <mxPoint x="490" y="345" />
            </Array>
          </mxGeometry>
        </mxCell>
        <mxCell id="okAwY-tgfTyeRXuGv9zp-143" value="Subnet Cache" style="points=[[0,0],[0.25,0],[0.5,0],[0.75,0],[1,0],[1,0.25],[1,0.5],[1,0.75],[1,1],[0.75,1],[0.5,1],[0.25,1],[0,1],[0,0.75],[0,0.5],[0,0.25]];outlineConnect=0;gradientColor=none;html=1;whiteSpace=wrap;fontSize=12;fontStyle=0;container=1;pointerEvents=0;collapsible=0;recursiveResize=0;shape=mxgraph.aws4.group;grIcon=mxgraph.aws4.group_security_group;grStroke=0;strokeColor=#00A4A6;fillColor=#E6F6F7;verticalAlign=top;align=left;spacingLeft=30;fontColor=#147EBA;dashed=0;" vertex="1" parent="okAwY-tgfTyeRXuGv9zp-11">
          <mxGeometry x="730" y="220" width="120" height="90" as="geometry" />
        </mxCell>
        <mxCell id="okAwY-tgfTyeRXuGv9zp-144" value="" style="outlineConnect=0;dashed=0;verticalLabelPosition=bottom;verticalAlign=top;align=center;html=1;shape=mxgraph.aws3.elasticache;fillColor=#2E73B8;gradientColor=none;" vertex="1" parent="okAwY-tgfTyeRXuGv9zp-143">
          <mxGeometry x="33.129999999999995" y="30" width="53.75" height="50" as="geometry" />
        </mxCell>
        <mxCell id="okAwY-tgfTyeRXuGv9zp-145" value="Subnet DB" style="points=[[0,0],[0.25,0],[0.5,0],[0.75,0],[1,0],[1,0.25],[1,0.5],[1,0.75],[1,1],[0.75,1],[0.5,1],[0.25,1],[0,1],[0,0.75],[0,0.5],[0,0.25]];outlineConnect=0;gradientColor=none;html=1;whiteSpace=wrap;fontSize=12;fontStyle=0;container=1;pointerEvents=0;collapsible=0;recursiveResize=0;shape=mxgraph.aws4.group;grIcon=mxgraph.aws4.group_security_group;grStroke=0;strokeColor=#00A4A6;fillColor=#E6F6F7;verticalAlign=top;align=left;spacingLeft=30;fontColor=#147EBA;dashed=0;" vertex="1" parent="okAwY-tgfTyeRXuGv9zp-11">
          <mxGeometry x="730" y="370" width="120" height="90" as="geometry" />
        </mxCell>
        <mxCell id="okAwY-tgfTyeRXuGv9zp-146" value="" style="sketch=0;points=[[0,0,0],[0.25,0,0],[0.5,0,0],[0.75,0,0],[1,0,0],[0,1,0],[0.25,1,0],[0.5,1,0],[0.75,1,0],[1,1,0],[0,0.25,0],[0,0.5,0],[0,0.75,0],[1,0.25,0],[1,0.5,0],[1,0.75,0]];outlineConnect=0;fontColor=#232F3E;fillColor=#C925D1;strokeColor=#ffffff;dashed=0;verticalLabelPosition=bottom;verticalAlign=top;align=center;html=1;fontSize=12;fontStyle=0;aspect=fixed;shape=mxgraph.aws4.resourceIcon;resIcon=mxgraph.aws4.rds;" vertex="1" parent="okAwY-tgfTyeRXuGv9zp-11">
          <mxGeometry x="770" y="410" width="40" height="40" as="geometry" />
        </mxCell>
        <mxCell id="okAwY-tgfTyeRXuGv9zp-147" style="edgeStyle=orthogonalEdgeStyle;rounded=0;orthogonalLoop=1;jettySize=auto;html=1;exitX=1;exitY=0.5;exitDx=0;exitDy=0;exitPerimeter=0;entryX=0.29;entryY=0.5;entryDx=0;entryDy=0;entryPerimeter=0;" edge="1" parent="okAwY-tgfTyeRXuGv9zp-11" source="okAwY-tgfTyeRXuGv9zp-142" target="okAwY-tgfTyeRXuGv9zp-144">
          <mxGeometry relative="1" as="geometry">
            <Array as="points">
              <mxPoint x="700" y="345" />
              <mxPoint x="700" y="275" />
            </Array>
          </mxGeometry>
        </mxCell>
        <mxCell id="okAwY-tgfTyeRXuGv9zp-148" style="edgeStyle=orthogonalEdgeStyle;rounded=0;orthogonalLoop=1;jettySize=auto;html=1;exitX=1;exitY=0.5;exitDx=0;exitDy=0;exitPerimeter=0;entryX=0;entryY=0.5;entryDx=0;entryDy=0;entryPerimeter=0;" edge="1" parent="okAwY-tgfTyeRXuGv9zp-11" source="okAwY-tgfTyeRXuGv9zp-142" target="okAwY-tgfTyeRXuGv9zp-146">
          <mxGeometry relative="1" as="geometry">
            <Array as="points">
              <mxPoint x="700" y="345" />
              <mxPoint x="700" y="430" />
            </Array>
          </mxGeometry>
        </mxCell>
        <mxCell id="okAwY-tgfTyeRXuGv9zp-149" value="" style="sketch=0;points=[[0,0,0],[0.25,0,0],[0.5,0,0],[0.75,0,0],[1,0,0],[0,1,0],[0.25,1,0],[0.5,1,0],[0.75,1,0],[1,1,0],[0,0.25,0],[0,0.5,0],[0,0.75,0],[1,0.25,0],[1,0.5,0],[1,0.75,0]];outlineConnect=0;fontColor=#232F3E;fillColor=#E7157B;strokeColor=#ffffff;dashed=0;verticalLabelPosition=bottom;verticalAlign=top;align=center;html=1;fontSize=12;fontStyle=0;aspect=fixed;shape=mxgraph.aws4.resourceIcon;resIcon=mxgraph.aws4.sns;" vertex="1" parent="okAwY-tgfTyeRXuGv9zp-11">
          <mxGeometry x="575" y="430" width="50" height="50" as="geometry" />
        </mxCell>
        <mxCell id="okAwY-tgfTyeRXuGv9zp-150" value="" style="edgeStyle=orthogonalEdgeStyle;rounded=0;orthogonalLoop=1;jettySize=auto;html=1;" edge="1" parent="okAwY-tgfTyeRXuGv9zp-11" source="okAwY-tgfTyeRXuGv9zp-142" target="okAwY-tgfTyeRXuGv9zp-149">
          <mxGeometry relative="1" as="geometry" />
        </mxCell>
        <mxCell id="okAwY-tgfTyeRXuGv9zp-151" value="Subnet Batch" style="points=[[0,0],[0.25,0],[0.5,0],[0.75,0],[1,0],[1,0.25],[1,0.5],[1,0.75],[1,1],[0.75,1],[0.5,1],[0.25,1],[0,1],[0,0.75],[0,0.5],[0,0.25]];outlineConnect=0;gradientColor=none;html=1;whiteSpace=wrap;fontSize=12;fontStyle=0;container=1;pointerEvents=0;collapsible=0;recursiveResize=0;shape=mxgraph.aws4.group;grIcon=mxgraph.aws4.group_security_group;grStroke=0;strokeColor=#00A4A6;fillColor=#E6F6F7;verticalAlign=top;align=left;spacingLeft=30;fontColor=#147EBA;dashed=0;" vertex="1" parent="okAwY-tgfTyeRXuGv9zp-11">
          <mxGeometry x="540" y="540" width="120" height="90" as="geometry" />
        </mxCell>
        <mxCell id="okAwY-tgfTyeRXuGv9zp-152" value="" style="sketch=0;points=[[0,0,0],[0.25,0,0],[0.5,0,0],[0.75,0,0],[1,0,0],[0,1,0],[0.25,1,0],[0.5,1,0],[0.75,1,0],[1,1,0],[0,0.25,0],[0,0.5,0],[0,0.75,0],[1,0.25,0],[1,0.5,0],[1,0.75,0]];outlineConnect=0;fontColor=#232F3E;fillColor=#ED7100;strokeColor=#ffffff;dashed=0;verticalLabelPosition=bottom;verticalAlign=top;align=center;html=1;fontSize=12;fontStyle=0;aspect=fixed;shape=mxgraph.aws4.resourceIcon;resIcon=mxgraph.aws4.ecs;" vertex="1" parent="okAwY-tgfTyeRXuGv9zp-151">
          <mxGeometry x="40" y="30" width="40" height="40" as="geometry" />
        </mxCell>
        <mxCell id="okAwY-tgfTyeRXuGv9zp-153" value="" style="edgeStyle=orthogonalEdgeStyle;rounded=0;orthogonalLoop=1;jettySize=auto;html=1;" edge="1" parent="okAwY-tgfTyeRXuGv9zp-11" source="okAwY-tgfTyeRXuGv9zp-152" target="okAwY-tgfTyeRXuGv9zp-149">
          <mxGeometry relative="1" as="geometry" />
        </mxCell>
        <mxCell id="okAwY-tgfTyeRXuGv9zp-155" value="" style="edgeStyle=orthogonalEdgeStyle;rounded=0;orthogonalLoop=1;jettySize=auto;html=1;" edge="1" parent="okAwY-tgfTyeRXuGv9zp-11" source="okAwY-tgfTyeRXuGv9zp-154" target="okAwY-tgfTyeRXuGv9zp-152">
          <mxGeometry relative="1" as="geometry" />
        </mxCell>
        <mxCell id="okAwY-tgfTyeRXuGv9zp-154" value="" style="sketch=0;points=[[0,0,0],[0.25,0,0],[0.5,0,0],[0.75,0,0],[1,0,0],[0,1,0],[0.25,1,0],[0.5,1,0],[0.75,1,0],[1,1,0],[0,0.25,0],[0,0.5,0],[0,0.75,0],[1,0.25,0],[1,0.5,0],[1,0.75,0]];outlineConnect=0;fontColor=#232F3E;fillColor=#E7157B;strokeColor=#ffffff;dashed=0;verticalLabelPosition=bottom;verticalAlign=top;align=center;html=1;fontSize=12;fontStyle=0;aspect=fixed;shape=mxgraph.aws4.resourceIcon;resIcon=mxgraph.aws4.sqs;" vertex="1" parent="okAwY-tgfTyeRXuGv9zp-11">
          <mxGeometry x="575" y="700" width="50" height="50" as="geometry" />
        </mxCell>
        <mxCell id="okAwY-tgfTyeRXuGv9zp-156" value="Subnet TRS" style="points=[[0,0],[0.25,0],[0.5,0],[0.75,0],[1,0],[1,0.25],[1,0.5],[1,0.75],[1,1],[0.75,1],[0.5,1],[0.25,1],[0,1],[0,0.75],[0,0.5],[0,0.25]];outlineConnect=0;gradientColor=none;html=1;whiteSpace=wrap;fontSize=12;fontStyle=0;container=1;pointerEvents=0;collapsible=0;recursiveResize=0;shape=mxgraph.aws4.group;grIcon=mxgraph.aws4.group_security_group;grStroke=0;strokeColor=#00A4A6;fillColor=#E6F6F7;verticalAlign=top;align=left;spacingLeft=30;fontColor=#147EBA;dashed=0;" vertex="1" parent="okAwY-tgfTyeRXuGv9zp-11">
          <mxGeometry x="540" y="830" width="120" height="90" as="geometry" />
        </mxCell>
        <mxCell id="okAwY-tgfTyeRXuGv9zp-157" value="" style="sketch=0;points=[[0,0,0],[0.25,0,0],[0.5,0,0],[0.75,0,0],[1,0,0],[0,1,0],[0.25,1,0],[0.5,1,0],[0.75,1,0],[1,1,0],[0,0.25,0],[0,0.5,0],[0,0.75,0],[1,0.25,0],[1,0.5,0],[1,0.75,0]];outlineConnect=0;fontColor=#232F3E;fillColor=#ED7100;strokeColor=#ffffff;dashed=0;verticalLabelPosition=bottom;verticalAlign=top;align=center;html=1;fontSize=12;fontStyle=0;aspect=fixed;shape=mxgraph.aws4.resourceIcon;resIcon=mxgraph.aws4.ecs;" vertex="1" parent="okAwY-tgfTyeRXuGv9zp-156">
          <mxGeometry x="40" y="30" width="40" height="40" as="geometry" />
        </mxCell>
        <mxCell id="okAwY-tgfTyeRXuGv9zp-158" value="" style="edgeStyle=orthogonalEdgeStyle;rounded=0;orthogonalLoop=1;jettySize=auto;html=1;exitX=0.5;exitY=0;exitDx=0;exitDy=0;exitPerimeter=0;" edge="1" parent="okAwY-tgfTyeRXuGv9zp-11" source="okAwY-tgfTyeRXuGv9zp-157" target="okAwY-tgfTyeRXuGv9zp-154">
          <mxGeometry relative="1" as="geometry" />
        </mxCell>
        <mxCell id="okAwY-tgfTyeRXuGv9zp-159" value="" style="sketch=0;points=[[0,0,0],[0.25,0,0],[0.5,0,0],[0.75,0,0],[1,0,0],[0,1,0],[0.25,1,0],[0.5,1,0],[0.75,1,0],[1,1,0],[0,0.25,0],[0,0.5,0],[0,0.75,0],[1,0.25,0],[1,0.5,0],[1,0.75,0]];outlineConnect=0;fontColor=#232F3E;fillColor=#E7157B;strokeColor=#ffffff;dashed=0;verticalLabelPosition=bottom;verticalAlign=top;align=center;html=1;fontSize=12;fontStyle=0;aspect=fixed;shape=mxgraph.aws4.resourceIcon;resIcon=mxgraph.aws4.sqs;" vertex="1" parent="okAwY-tgfTyeRXuGv9zp-11">
          <mxGeometry x="575" y="990" width="50" height="50" as="geometry" />
        </mxCell>
        <mxCell id="okAwY-tgfTyeRXuGv9zp-160" style="edgeStyle=orthogonalEdgeStyle;rounded=0;orthogonalLoop=1;jettySize=auto;html=1;exitX=0.5;exitY=0;exitDx=0;exitDy=0;exitPerimeter=0;entryX=0.5;entryY=1;entryDx=0;entryDy=0;entryPerimeter=0;" edge="1" parent="okAwY-tgfTyeRXuGv9zp-11">
          <mxGeometry relative="1" as="geometry">
            <mxPoint x="599.5" y="990" as="sourcePoint" />
            <mxPoint x="599.5" y="900" as="targetPoint" />
          </mxGeometry>
        </mxCell>
        <mxCell id="okAwY-tgfTyeRXuGv9zp-163" style="edgeStyle=orthogonalEdgeStyle;rounded=0;orthogonalLoop=1;jettySize=auto;html=1;exitX=0.5;exitY=1;exitDx=0;exitDy=0;exitPerimeter=0;entryX=0.5;entryY=0;entryDx=0;entryDy=0;entryPerimeter=0;" edge="1" parent="okAwY-tgfTyeRXuGv9zp-11" source="okAwY-tgfTyeRXuGv9zp-157" target="okAwY-tgfTyeRXuGv9zp-159">
          <mxGeometry relative="1" as="geometry" />
        </mxCell>
        <mxCell id="okAwY-tgfTyeRXuGv9zp-164" value="Subnet Cache" style="points=[[0,0],[0.25,0],[0.5,0],[0.75,0],[1,0],[1,0.25],[1,0.5],[1,0.75],[1,1],[0.75,1],[0.5,1],[0.25,1],[0,1],[0,0.75],[0,0.5],[0,0.25]];outlineConnect=0;gradientColor=none;html=1;whiteSpace=wrap;fontSize=12;fontStyle=0;container=1;pointerEvents=0;collapsible=0;recursiveResize=0;shape=mxgraph.aws4.group;grIcon=mxgraph.aws4.group_security_group;grStroke=0;strokeColor=#00A4A6;fillColor=#E6F6F7;verticalAlign=top;align=left;spacingLeft=30;fontColor=#147EBA;dashed=0;" vertex="1" parent="okAwY-tgfTyeRXuGv9zp-11">
          <mxGeometry x="740" y="750" width="120" height="90" as="geometry" />
        </mxCell>
        <mxCell id="okAwY-tgfTyeRXuGv9zp-165" value="" style="outlineConnect=0;dashed=0;verticalLabelPosition=bottom;verticalAlign=top;align=center;html=1;shape=mxgraph.aws3.elasticache;fillColor=#2E73B8;gradientColor=none;" vertex="1" parent="okAwY-tgfTyeRXuGv9zp-164">
          <mxGeometry x="33.129999999999995" y="30" width="53.75" height="50" as="geometry" />
        </mxCell>
        <mxCell id="okAwY-tgfTyeRXuGv9zp-166" value="Subnet DB" style="points=[[0,0],[0.25,0],[0.5,0],[0.75,0],[1,0],[1,0.25],[1,0.5],[1,0.75],[1,1],[0.75,1],[0.5,1],[0.25,1],[0,1],[0,0.75],[0,0.5],[0,0.25]];outlineConnect=0;gradientColor=none;html=1;whiteSpace=wrap;fontSize=12;fontStyle=0;container=1;pointerEvents=0;collapsible=0;recursiveResize=0;shape=mxgraph.aws4.group;grIcon=mxgraph.aws4.group_security_group;grStroke=0;strokeColor=#00A4A6;fillColor=#E6F6F7;verticalAlign=top;align=left;spacingLeft=30;fontColor=#147EBA;dashed=0;" vertex="1" parent="okAwY-tgfTyeRXuGv9zp-11">
          <mxGeometry x="740" y="900" width="120" height="90" as="geometry" />
        </mxCell>
        <mxCell id="okAwY-tgfTyeRXuGv9zp-167" value="" style="sketch=0;points=[[0,0,0],[0.25,0,0],[0.5,0,0],[0.75,0,0],[1,0,0],[0,1,0],[0.25,1,0],[0.5,1,0],[0.75,1,0],[1,1,0],[0,0.25,0],[0,0.5,0],[0,0.75,0],[1,0.25,0],[1,0.5,0],[1,0.75,0]];outlineConnect=0;fontColor=#232F3E;fillColor=#C925D1;strokeColor=#ffffff;dashed=0;verticalLabelPosition=bottom;verticalAlign=top;align=center;html=1;fontSize=12;fontStyle=0;aspect=fixed;shape=mxgraph.aws4.resourceIcon;resIcon=mxgraph.aws4.rds;" vertex="1" parent="okAwY-tgfTyeRXuGv9zp-11">
          <mxGeometry x="780" y="940" width="40" height="40" as="geometry" />
        </mxCell>
        <mxCell id="okAwY-tgfTyeRXuGv9zp-168" style="edgeStyle=orthogonalEdgeStyle;rounded=0;orthogonalLoop=1;jettySize=auto;html=1;exitX=1;exitY=0.5;exitDx=0;exitDy=0;exitPerimeter=0;entryX=0.29;entryY=0.5;entryDx=0;entryDy=0;entryPerimeter=0;" edge="1" parent="okAwY-tgfTyeRXuGv9zp-11" source="okAwY-tgfTyeRXuGv9zp-157" target="okAwY-tgfTyeRXuGv9zp-165">
          <mxGeometry relative="1" as="geometry">
            <Array as="points">
              <mxPoint x="700" y="880" />
              <mxPoint x="700" y="805" />
            </Array>
          </mxGeometry>
        </mxCell>
        <mxCell id="okAwY-tgfTyeRXuGv9zp-169" style="edgeStyle=orthogonalEdgeStyle;rounded=0;orthogonalLoop=1;jettySize=auto;html=1;exitX=1;exitY=0.5;exitDx=0;exitDy=0;exitPerimeter=0;entryX=0;entryY=0.5;entryDx=0;entryDy=0;entryPerimeter=0;" edge="1" parent="okAwY-tgfTyeRXuGv9zp-11" source="okAwY-tgfTyeRXuGv9zp-157" target="okAwY-tgfTyeRXuGv9zp-167">
          <mxGeometry relative="1" as="geometry" />
        </mxCell>
        <mxCell id="okAwY-tgfTyeRXuGv9zp-177" value="" style="edgeStyle=orthogonalEdgeStyle;rounded=0;orthogonalLoop=1;jettySize=auto;html=1;" edge="1" parent="okAwY-tgfTyeRXuGv9zp-11" source="okAwY-tgfTyeRXuGv9zp-171" target="okAwY-tgfTyeRXuGv9zp-176">
          <mxGeometry relative="1" as="geometry" />
        </mxCell>
        <mxCell id="okAwY-tgfTyeRXuGv9zp-171" value="Auto Scaling group" style="points=[[0,0],[0.25,0],[0.5,0],[0.75,0],[1,0],[1,0.25],[1,0.5],[1,0.75],[1,1],[0.75,1],[0.5,1],[0.25,1],[0,1],[0,0.75],[0,0.5],[0,0.25]];outlineConnect=0;gradientColor=none;html=1;whiteSpace=wrap;fontSize=12;fontStyle=0;container=1;pointerEvents=0;collapsible=0;recursiveResize=0;shape=mxgraph.aws4.groupCenter;grIcon=mxgraph.aws4.group_auto_scaling_group;grStroke=1;strokeColor=#D86613;fillColor=none;verticalAlign=top;align=center;fontColor=#D86613;dashed=1;spacingTop=25;" vertex="1" parent="okAwY-tgfTyeRXuGv9zp-11">
          <mxGeometry x="275" y="275" width="410" height="130" as="geometry" />
        </mxCell>
        <mxCell id="okAwY-tgfTyeRXuGv9zp-176" value="" style="sketch=0;points=[[0,0,0],[0.25,0,0],[0.5,0,0],[0.75,0,0],[1,0,0],[0,1,0],[0.25,1,0],[0.5,1,0],[0.75,1,0],[1,1,0],[0,0.25,0],[0,0.5,0],[0,0.75,0],[1,0.25,0],[1,0.5,0],[1,0.75,0]];points=[[0,0,0],[0.25,0,0],[0.5,0,0],[0.75,0,0],[1,0,0],[0,1,0],[0.25,1,0],[0.5,1,0],[0.75,1,0],[1,1,0],[0,0.25,0],[0,0.5,0],[0,0.75,0],[1,0.25,0],[1,0.5,0],[1,0.75,0]];outlineConnect=0;fontColor=#232F3E;fillColor=#E7157B;strokeColor=#ffffff;dashed=0;verticalLabelPosition=bottom;verticalAlign=top;align=center;html=1;fontSize=12;fontStyle=0;aspect=fixed;shape=mxgraph.aws4.resourceIcon;resIcon=mxgraph.aws4.cloudwatch_2;" vertex="1" parent="okAwY-tgfTyeRXuGv9zp-11">
          <mxGeometry x="454.5" y="559.5" width="51" height="51" as="geometry" />
        </mxCell>
        <mxCell id="okAwY-tgfTyeRXuGv9zp-172" value="Auto Scaling group" style="points=[[0,0],[0.25,0],[0.5,0],[0.75,0],[1,0],[1,0.25],[1,0.5],[1,0.75],[1,1],[0.75,1],[0.5,1],[0.25,1],[0,1],[0,0.75],[0,0.5],[0,0.25]];outlineConnect=0;gradientColor=none;html=1;whiteSpace=wrap;fontSize=12;fontStyle=0;container=1;pointerEvents=0;collapsible=0;recursiveResize=0;shape=mxgraph.aws4.groupCenter;grIcon=mxgraph.aws4.group_auto_scaling_group;grStroke=1;strokeColor=#D86613;fillColor=none;verticalAlign=top;align=center;fontColor=#D86613;dashed=1;spacingTop=25;" vertex="1" parent="okAwY-tgfTyeRXuGv9zp-11">
          <mxGeometry x="275" y="820" width="410" height="130" as="geometry" />
        </mxCell>
        <mxCell id="okAwY-tgfTyeRXuGv9zp-180" style="edgeStyle=orthogonalEdgeStyle;rounded=0;orthogonalLoop=1;jettySize=auto;html=1;exitX=0.5;exitY=0;exitDx=0;exitDy=0;entryX=0.5;entryY=1;entryDx=0;entryDy=0;entryPerimeter=0;" edge="1" parent="okAwY-tgfTyeRXuGv9zp-11" source="okAwY-tgfTyeRXuGv9zp-172" target="okAwY-tgfTyeRXuGv9zp-176">
          <mxGeometry relative="1" as="geometry" />
        </mxCell>
        <mxCell id="okAwY-tgfTyeRXuGv9zp-23" value="" style="edgeStyle=orthogonalEdgeStyle;rounded=0;orthogonalLoop=1;jettySize=auto;html=1;" edge="1" parent="okAwY-tgfTyeRXuGv9zp-10" source="okAwY-tgfTyeRXuGv9zp-20" target="okAwY-tgfTyeRXuGv9zp-22">
          <mxGeometry relative="1" as="geometry" />
        </mxCell>
        <mxCell id="okAwY-tgfTyeRXuGv9zp-20" value="" style="sketch=0;outlineConnect=0;fontColor=#232F3E;gradientColor=none;fillColor=#8C4FFF;strokeColor=none;dashed=0;verticalLabelPosition=bottom;verticalAlign=top;align=center;html=1;fontSize=12;fontStyle=0;aspect=fixed;pointerEvents=1;shape=mxgraph.aws4.internet_gateway;" vertex="1" parent="okAwY-tgfTyeRXuGv9zp-10">
          <mxGeometry x="470" y="10" width="40" height="40" as="geometry" />
        </mxCell>
      </root>
    </mxGraphModel>
  </diagram>
</mxfile>
